<svg width="205" height="150" viewBox="0 0 205 150" fill="none" xmlns="http://www.w3.org/2000/svg">
<g clip-path="url(#clip0_147_1017)">
<path d="M6.89834 146.295C3.6398 124.978 1.64619 103.486 0.927979 81.9337C1.72694 81.6003 2.60245 81.494 3.45796 81.6267C4.31347 81.7593 5.11573 82.1256 5.77625 82.6853C6.98782 84.0118 8.28943 85.2533 9.6718 86.4009C9.91832 86.6054 10.2302 86.7143 10.5504 86.7078C10.8987 86.6336 11.2032 86.4242 11.3973 86.1256C12.4559 84.8236 12.9746 83.1722 13.8955 81.7643C14.8165 80.3564 16.4149 79.1496 18.0557 79.5201C21.0515 80.1976 21.6337 85.3634 24.7141 85.3634C28.1122 85.3634 28.4827 79.012 31.8701 78.8003C33.7226 78.6521 35.0458 80.4517 36.1044 81.976C37.163 83.5004 38.9202 85.0882 40.6245 84.3684C41.1757 84.0917 41.6599 83.6979 42.043 83.2145C43.4615 81.6902 44.8694 80.1553 46.2773 78.6309C46.831 77.8702 47.6446 77.3391 48.5638 77.1383C50.8186 76.969 51.3055 80.2399 52.724 82.0078C54.5871 84.3155 58.8108 83.5321 60.134 80.8751C60.8221 79.4884 61.0021 77.6994 62.3676 76.916C64.2201 75.921 66.242 77.8687 67.4276 79.6048C68.6132 81.3409 70.5292 83.3416 72.4453 82.4735C73.0976 82.0984 73.6468 81.5674 74.0437 80.928L78.1298 75.4128C78.4449 74.8871 78.9546 74.5067 79.5483 74.3543C80.4163 74.2484 81.0621 75.0847 81.5172 75.8257L85.2752 81.9654C86.8419 84.5166 88.8532 87.9252 87.0218 90.2964C85.7621 91.916 83.0628 92.4136 82.6076 94.3825C81.8242 97.7805 88.4827 99.2837 87.9005 102.713C87.4664 105.254 83.338 105.826 82.9993 108.377C82.5758 111.616 88.5038 112.463 88.7897 115.723C88.9484 117.502 87.2971 118.899 85.8892 119.958C84.4813 121.016 83.0416 122.805 83.772 124.457C84.3225 125.769 85.8892 126.214 87.2653 126.68C88.6415 127.145 90.1235 128.172 89.9329 129.591C89.8406 130.091 89.6053 130.555 89.2554 130.924C88.1877 131.875 87.0402 132.732 85.8256 133.486C84.7036 134.365 83.7085 135.783 84.1531 137.149C84.4581 137.922 84.971 138.596 85.6351 139.097L88.8108 142.029C89.5382 142.57 90.0725 143.331 90.3352 144.199C90.3863 144.784 90.2551 145.371 89.9594 145.879C89.6638 146.387 89.2182 146.791 88.6838 147.036C87.6035 147.51 86.4335 147.745 85.254 147.724C61.9654 149.058 38.645 149.831 15.2928 150.042C13.6169 150.156 11.9343 149.963 10.3281 149.471C8.74026 148.836 7.1524 147.946 6.89834 146.295Z" fill="#FF7E5F"/>
<path d="M100.223 146.941C99.1639 146.274 91.6057 140.759 89.8802 138.176C89.6789 137.926 89.5317 137.637 89.4479 137.327C89.3641 137.017 89.3455 136.693 89.3933 136.376C89.5746 135.86 89.9205 135.417 90.3778 135.116C91.9233 133.92 93.7652 132.999 95.0355 131.57C96.3058 130.141 96.761 127.59 95.3107 126.277C94.4215 125.462 93.1089 125.346 91.9762 124.965C90.8436 124.584 89.6579 123.525 89.9543 122.361C90.094 121.954 90.3344 121.59 90.653 121.302C92.5479 119.418 95.8294 118.211 95.7765 115.543C95.7765 113.987 94.4745 112.749 93.1618 111.912C91.765 111.229 90.4971 110.308 89.4145 109.192C89.3065 109.087 89.2223 108.959 89.1676 108.819C89.1128 108.678 89.0887 108.527 89.0969 108.377C89.1807 108.061 89.3812 107.789 89.6579 107.615C90.9647 106.736 92.1716 105.717 93.2571 104.577C93.7924 103.997 94.1553 103.28 94.3049 102.506C94.4545 101.732 94.3849 100.931 94.104 100.194C93.0454 97.9499 89.6791 97.8863 88.0383 95.9597C92.1399 89.7 96.6115 83.6907 101.429 77.964C102.424 76.7784 103.546 75.5187 105.145 75.4022C108.575 75.1482 110.438 80.5151 113.889 80.1552C117.34 79.7953 118.43 73.8038 121.913 74.1108C125.861 74.4389 125.501 82.1453 129.45 82.41C132.784 82.6429 134.478 76.8948 137.738 77.6146C140.745 78.271 140.713 83.7226 143.772 84.0931C146.62 84.4425 148.07 79.7847 150.949 79.8588C153.829 79.9329 154.824 84.9717 157.777 84.9612C160.307 84.9612 161.673 81.1715 164.192 81.3726C166.712 81.5737 167.368 85.501 169.718 86.3479C171.401 86.9407 173.148 85.7868 174.545 84.6965L178.441 81.6796C178.758 81.4361 179.055 81.1397 179.287 81.4679C179.481 81.8233 179.541 82.2364 179.457 82.6323C177.643 102.322 175.332 121.958 172.523 141.542C172.216 143.659 171.772 145.935 170.046 147.131C169.024 147.738 167.867 148.08 166.68 148.126C157.925 149.121 149.086 148.126 140.215 147.999C125.078 147.862 101.143 149.873 100.223 146.941Z" fill="#FEB47B"/>
<path d="M97.2583 64.2766L101.8 70.2788C102.477 71.168 103.44 72.1736 104.52 71.8772C105.229 71.6867 105.674 70.9986 106.341 70.681C107.876 69.9506 109.517 71.4961 110.416 72.9146C111.316 74.3331 112.65 76.0268 114.312 75.6669C115.1 75.4172 115.785 74.915 116.26 74.2378C117.89 72.3112 119.774 69.9294 122.283 70.2152C125.131 70.5434 126.284 73.9202 127.862 76.3126C128.074 76.7329 128.39 77.0929 128.778 77.3593C129.167 77.6257 129.616 77.79 130.085 77.837C130.617 77.7668 131.114 77.5296 131.503 77.1595C133.525 75.434 134.901 72.2265 137.548 72.4488C138.228 72.5837 138.869 72.8734 139.42 73.2956C139.97 73.7178 140.416 74.2612 140.723 74.8835C141.334 76.1401 142.064 77.3347 142.904 78.4509C143.061 78.6651 143.269 78.8364 143.51 78.9492C143.75 79.062 144.015 79.1127 144.28 79.0967C144.605 78.9958 144.89 78.7959 145.095 78.525C146.27 77.1912 147.011 75.3493 148.642 74.6189C149.298 74.3899 150 74.3214 150.689 74.419C151.378 74.5166 152.033 74.7775 152.601 75.1799C153.721 76.007 154.694 77.0161 155.48 78.1651C155.833 78.731 156.334 79.1888 156.93 79.4883C158.137 79.9541 159.418 79.0437 160.265 78.0593C161.112 77.0748 161.895 75.9421 163.144 75.5716C164.795 75.1482 166.404 76.4608 167.378 77.9005C168.352 79.3401 168.934 81.0762 170.258 82.1348C170.498 82.351 170.796 82.4942 171.115 82.5476C171.498 82.5372 171.868 82.4077 172.174 82.1771C175.025 80.4359 177.369 77.9753 178.97 75.0423C180.335 72.5335 179.859 69.326 179.764 66.4573L178.112 12.3112C178.049 10.3634 177.265 8.07691 175.582 7.01834C174.442 6.45851 173.199 6.14131 171.93 6.08679C149.785 3.60973 127.59 1.71135 105.346 0.391663C105.028 3.56739 107.918 6.06562 110.004 8.5321C110.273 8.79779 110.451 9.14269 110.512 9.51658C110.497 9.754 110.427 9.9847 110.307 10.1905C110.188 10.3962 110.022 10.5714 109.824 10.7022C108.088 12.0572 105.102 12.1207 104.457 14.2272C103.927 15.9315 105.441 17.53 106.796 18.6944C108.151 19.8588 109.622 21.5526 108.913 23.2145C107.855 25.8186 103.017 25.0141 102.255 27.7029C104.291 29.2101 106.127 30.9709 107.717 32.9428C108.006 33.2317 108.201 33.6004 108.278 34.0014C108.252 34.3099 108.148 34.6067 107.975 34.864C107.803 35.1213 107.569 35.3308 107.294 35.4728C106.108 36.2773 104.711 36.6902 103.515 37.4735C102.886 37.8111 102.368 38.3237 102.024 38.9493C101.68 39.5749 101.525 40.2867 101.577 40.9986C101.738 41.6226 102.038 42.2019 102.456 42.6923C103.402 43.9524 104.501 45.0902 105.727 46.0797C106.315 46.4439 106.769 46.9903 107.018 47.6358C107.378 49.0967 105.536 50.0706 104.054 50.2823C102.572 50.494 100.709 50.8433 100.36 52.2936C99.7989 54.6754 102.615 55.988 102.636 58.4333C102.636 60.0318 97.4383 62.3606 97.1948 63.9485C97.1948 64.2131 97.1948 64.573 97.523 64.573C97.8511 64.573 97.3324 64.0226 97.2583 64.2766Z" fill="#FF7E5F"/>
<path d="M1.7749 72.8193C3.3878 75.3376 5.20779 77.717 7.21597 79.9329C7.52776 80.3284 7.92612 80.6471 8.38041 80.8645C9.64011 81.3514 10.9422 80.1764 11.4609 78.9379C11.9796 77.6993 12.1066 76.2808 12.9111 75.2117C14.319 73.3274 17.2936 73.338 19.2626 74.5765C21.2315 75.8151 22.4383 77.9534 23.6345 79.9964C27.2336 79.3401 28.0911 73.0522 31.7431 73.2957C35.0247 73.518 36.1468 79.1284 39.4284 78.8532C40.2226 78.7501 40.9638 78.398 41.5455 77.8475C43.0064 76.5878 43.9273 74.8094 45.2611 73.4015C46.5949 71.9936 48.7121 70.988 50.4482 71.856C52.7982 73.0416 53.2534 77.1277 55.9739 77.2759C58.1652 77.4241 59.2555 74.7671 60.3247 72.8405C61.2562 71.1362 63.2569 69.5695 64.993 70.4269C65.4488 70.6745 65.8488 71.0132 66.168 71.422C67.6712 73.211 69.1532 75.8574 71.4609 75.4552C74.7213 74.8835 74.5519 68.9132 77.8123 68.3839C78.9451 68.3155 80.0593 68.6958 80.9139 69.4425C83.106 71.2753 84.9369 73.5012 86.3127 76.0056C86.6091 76.4926 86.9478 77.0642 87.4983 77.1595C88.0225 77.2216 88.551 77.0857 88.9803 76.7784C90.7347 75.797 92.3903 74.6484 93.9238 73.3486C94.543 72.9259 95.0017 72.3068 95.2259 71.5914C95.3028 70.7618 95.0895 69.9312 94.6225 69.2413L91.7749 63.8003C93.7333 62.0642 95.2153 59.566 97.4594 58.1898C97.6394 55.9668 94.5484 54.1249 95.4058 52.0712C95.6967 51.5642 96.1029 51.1326 96.5914 50.8115L101.207 47.1277L96.7714 41.8348C96.4781 41.5673 96.2459 41.2397 96.0907 40.8744C95.9354 40.509 95.8607 40.1145 95.8716 39.7177C96.0437 39.1167 96.4175 38.5934 96.9302 38.2357L101.905 33.8744C100.042 31.9901 98.2357 30.0458 96.4856 28.0416C96.284 27.8687 96.1248 27.6519 96.0202 27.4078C95.9156 27.1637 95.8684 26.8989 95.8822 26.6337C95.9774 26.1785 96.422 25.8821 96.8243 25.6492L103.398 21.7431C101.815 20.782 100.446 19.5066 99.3755 17.9957C98.8475 17.228 98.5648 16.3181 98.5648 15.3864C98.5648 14.4546 98.8475 13.5447 99.3755 12.777C100.593 11.3267 102.943 11.0091 103.8 9.31543C104.041 8.68479 104.124 8.00472 104.041 7.3348C103.958 6.66488 103.711 6.02555 103.324 5.4728C102.478 4.2008 101.387 3.11028 100.115 2.26507C98.8425 1.41986 97.4143 0.836942 95.9139 0.55043C92.9274 -0.0053076 89.8803 -0.161935 86.8525 0.0846572C65.5011 0.910345 36.0092 2.11712 14.6895 3.17569C13.1757 3.24979 11.5138 3.37682 10.4552 4.42481C9.64009 5.35625 9.11083 6.50298 8.93087 7.72756C3.78619 29.5024 2.65352 51.7748 1.7749 72.8193Z" fill="#FEB47B"/>
<path d="M90.9069 12.5229C85.8046 9.89763 79.2626 10.9774 73.8003 11.8983C67.3747 13.167 61.2605 15.6846 55.8046 19.3084C50.1222 22.9549 44.8577 27.2147 40.1059 32.0113C35.2987 36.6073 31.5211 42.1708 29.0226 48.3345C27.6909 52.0346 26.6469 55.8321 25.8998 59.693C25.4983 61.4563 25.317 63.2626 25.36 65.0705C25.4235 66.7854 25.7834 68.6591 25.36 70.3634C25.1059 71.2526 26.4185 71.8878 26.8949 71.0091C28.1228 68.4368 27.6041 65.5257 28.1122 62.8052C28.7771 59.4242 29.6719 56.0925 30.7904 52.8334C32.7455 46.8552 36.1198 41.4396 40.6246 37.0501C45.0935 32.5395 49.9381 28.4174 55.1059 24.7283C60.3664 21.125 66.0929 18.2546 72.1278 16.1962C77.7488 14.2801 84.2802 12.7029 90.2082 14.079C91.108 14.259 91.7432 12.9781 90.9069 12.5229Z" fill="white"/>
<path d="M39.1424 22.4841C36.2737 23.7438 33.7225 26.3056 31.5313 28.518C29.0814 31.0069 26.8994 33.7459 25.021 36.6902C23.1224 39.578 21.62 42.7075 20.5539 45.995C20.0682 47.5937 19.7593 49.2408 19.6329 50.9068C19.3656 52.3978 19.4859 53.9324 19.9822 55.3634C20.0425 55.4679 20.1321 55.5523 20.24 55.6061C20.3478 55.6599 20.4692 55.6808 20.5888 55.6661C20.7085 55.6514 20.8212 55.6019 20.9128 55.5236C21.0045 55.4453 21.0711 55.3417 21.1043 55.2258C21.4854 53.7967 21.369 52.2724 21.623 50.8221C21.9003 49.3317 22.2859 47.8634 22.7769 46.4291C23.8324 43.2739 25.3025 40.273 27.1488 37.5053C28.9571 34.7496 31.0197 32.1695 33.3097 29.7989C35.4268 27.5864 37.8827 25.8398 40.1057 23.7756C40.8785 23.0875 39.9469 22.1242 39.1424 22.4841Z" fill="white"/>
<path d="M75.8222 138.896C70.7411 139.435 65.7022 137.286 61.0022 135.54C56.518 133.864 52.2779 131.596 48.3946 128.797C41.0586 123.504 35.5435 115.596 31.6373 107.509C29.2873 102.65 27.583 97.5899 25.6564 92.5617C25.587 92.3754 25.4502 92.2219 25.2731 92.1315C25.096 92.0412 24.8914 92.0206 24.6998 92.0738C24.5083 92.127 24.3436 92.2501 24.2385 92.4189C24.1334 92.5877 24.0954 92.7897 24.132 92.9851C25.0593 97.859 26.6068 102.594 28.7368 107.075C30.7528 111.502 33.2369 115.7 36.1468 119.598C42.002 127.44 49.8752 133.546 58.9274 137.265C63.9768 139.277 70.487 142.41 75.8646 140.198C76.6161 139.944 76.6267 138.8 75.8222 138.896Z" fill="white"/>
<path d="M48.0134 136.27C43.7791 134.841 40.4975 132.036 37.4276 128.86C35.7125 127.114 34.1342 125.238 32.7064 123.25C31.1079 121.016 29.5306 118.677 27.7734 116.581C27.6691 116.479 27.5343 116.414 27.3896 116.396C27.2448 116.378 27.0982 116.408 26.972 116.481C26.8459 116.554 26.7473 116.667 26.6913 116.801C26.6353 116.936 26.6249 117.085 26.6619 117.227C28.7849 122.394 31.9116 127.089 35.8609 131.041C37.553 132.824 39.4182 134.434 41.429 135.847C43.2921 137.138 45.4516 138.409 47.7805 138.197C48.0124 138.185 48.2329 138.092 48.4028 137.934C48.5727 137.776 48.6812 137.562 48.7091 137.332C48.737 137.101 48.6824 136.868 48.5551 136.674C48.4278 136.48 48.2359 136.337 48.0134 136.27Z" fill="white"/>
<path d="M155.48 91.4502C153.003 96.669 152.251 102.523 149.732 107.752C147.68 112.097 145.254 116.256 142.48 120.18C139.644 124.248 136.106 127.779 132.032 130.607C127.742 133.316 123.116 135.452 118.271 136.958C115.505 137.91 112.675 138.663 109.802 139.213C106.955 139.742 103.938 139.721 101.143 140.42C101.011 140.463 100.896 140.546 100.814 140.658C100.732 140.77 100.688 140.906 100.688 141.044C100.688 141.183 100.732 141.318 100.814 141.431C100.896 141.543 101.011 141.626 101.143 141.669C103.588 142.262 106.351 141.838 108.807 141.521C111.507 141.152 114.186 140.64 116.831 139.986C122.05 138.739 127.067 136.765 131.736 134.121C140.639 128.987 146.736 120.148 151.245 111.14C154.139 105.122 156.106 98.7017 157.078 92.096C157.226 91.2279 155.924 90.4658 155.48 91.4502Z" fill="white"/>
<path d="M161.429 101.835C161.355 101.115 160.286 100.607 159.894 101.422C159.318 102.83 158.841 104.277 158.465 105.752C157.941 107.404 157.326 109.026 156.623 110.61C155.303 113.644 153.757 116.574 151.997 119.375C148.578 124.764 143.476 128.744 139.802 133.92C139.305 134.629 140.363 135.339 140.946 134.809C145.72 130.459 150.6 125.822 154.061 120.318C155.858 117.446 157.433 114.441 158.772 111.33C160.011 108.504 161.736 105 161.429 101.835Z" fill="white"/>
<path d="M132.869 137.424C132.793 137.297 132.686 137.192 132.559 137.118C132.431 137.044 132.286 137.003 132.138 137.001C131.917 137.006 131.696 137.038 131.482 137.096C131.243 137.138 131.015 137.232 130.815 137.371C130.466 137.615 130.127 137.879 129.757 138.155L128.931 138.811L128.709 138.991C128.643 139.049 128.583 139.113 128.529 139.181L128.137 139.584C128.015 139.708 127.937 139.869 127.915 140.042C127.894 140.215 127.93 140.39 128.018 140.541C128.105 140.691 128.24 140.809 128.402 140.875C128.563 140.941 128.741 140.952 128.91 140.907C129.313 140.808 129.699 140.647 130.053 140.43C130.36 140.229 130.656 140.018 130.953 139.795C131.249 139.573 131.524 139.393 131.821 139.213C132.229 138.967 132.588 138.648 132.879 138.271C132.955 138.142 132.995 137.995 132.993 137.846C132.991 137.697 132.948 137.551 132.869 137.424Z" fill="white"/>
<path d="M137.061 26.8136C136.475 26.0489 135.819 25.3402 135.102 24.6965C133.608 23.3481 131.972 22.1661 130.222 21.1714C126.835 19.2554 123.193 17.5617 120.229 14.9999C119.605 14.4495 118.419 15.1905 118.991 15.9527C121.394 19.1284 124.866 20.9068 128.232 22.9075C129.913 23.8368 131.516 24.8988 133.028 26.0832C133.75 26.684 134.426 27.3386 135.049 28.0416C135.738 28.8143 136.172 29.8306 137.05 30.381C137.189 30.4574 137.345 30.4969 137.503 30.4956C137.661 30.4943 137.816 30.4522 137.953 30.3735C138.091 30.2948 138.205 30.1821 138.286 30.0462C138.367 29.9103 138.412 29.7558 138.416 29.5977C138.284 28.5456 137.807 27.5668 137.061 26.8136Z" fill="white"/>
<path d="M158.412 67.9817C158.412 67.9817 158.349 67.5794 158.412 67.717C158.412 67.3783 158.349 67.029 158.274 66.6585C158.147 66.1186 158.031 65.5999 157.904 65.0282C157.777 64.4566 157.671 63.9697 157.555 63.3769C157.506 62.7527 157.333 62.1445 157.047 61.5879C156.953 61.4379 156.819 61.3177 156.66 61.2418C156.5 61.1659 156.323 61.1374 156.148 61.1598C155.972 61.1821 155.807 61.2542 155.672 61.3677C155.537 61.4811 155.437 61.631 155.385 61.7996C155.282 62.4197 155.311 63.0545 155.469 63.6627C155.554 64.319 155.628 64.9753 155.734 65.6211C155.875 66.8736 156.371 68.0599 157.163 69.0402C157.276 69.1463 157.417 69.2175 157.569 69.2453C157.721 69.2731 157.879 69.2564 158.022 69.1972C158.165 69.138 158.288 69.0387 158.376 68.9114C158.464 68.784 158.513 68.634 158.518 68.4792L158.412 67.9817Z" fill="white"/>
<path d="M141.888 18.9378C141.806 18.7525 141.706 18.5753 141.591 18.4086C141.377 18.0494 141.105 17.7276 140.787 17.4558C140.189 16.9829 139.544 16.5748 138.86 16.2385C138.639 16.1229 138.384 16.0891 138.14 16.1432C137.905 16.2113 137.704 16.3665 137.579 16.5772C137.457 16.7917 137.424 17.045 137.485 17.2839C137.546 17.5227 137.698 17.7286 137.907 17.8581C138.246 18.0592 138.574 18.2815 138.892 18.5144C139.209 18.7473 139.485 19.0331 139.792 19.2766L139.59 19.1178C139.813 19.288 140.022 19.4756 140.215 19.6788C140.319 19.8011 140.436 19.9112 140.564 20.007C140.691 20.1129 140.829 20.1764 140.967 20.2716C141.072 20.3387 141.193 20.3761 141.317 20.3797C141.442 20.3833 141.565 20.3531 141.673 20.2923C141.782 20.2314 141.872 20.1422 141.934 20.0342C141.996 19.9262 142.028 19.8034 142.025 19.6788C142.028 19.4253 141.981 19.1736 141.888 18.9378Z" fill="white"/>
<path d="M53.4014 12.2901C53.1849 12.1616 52.9276 12.12 52.6816 12.1736C52.5434 12.2155 52.4089 12.2686 52.2794 12.3324L51.7924 12.5653C51.4164 12.7485 51.0614 12.9721 50.7338 13.2322L49.9293 13.9203C49.6541 14.1532 49.4106 14.4072 49.1566 14.6613C48.9936 14.8178 48.8955 15.0299 48.8818 15.2555C48.8681 15.481 48.9397 15.7035 49.0825 15.8786C49.2197 16.0494 49.4127 16.1664 49.6276 16.209C49.8425 16.2516 50.0655 16.2171 50.2575 16.1115C50.6295 15.9213 50.9838 15.6981 51.3161 15.4446L52.1206 14.8095L51.9194 14.9683C52.11 14.8201 52.3111 14.6613 52.4911 14.4919L52.8933 14.1426C52.9568 14.0896 53.1897 13.9309 52.9568 14.0896L53.1474 13.952C53.4438 13.7509 53.7296 13.5709 53.8037 13.2004C53.8505 13.0256 53.8361 12.84 53.7629 12.6744C53.6898 12.5088 53.5622 12.3732 53.4014 12.2901Z" fill="white"/>
<path d="M19.0823 105.011C19.0182 104.769 18.8902 104.55 18.7118 104.375L18.426 104.153C18.2069 104.028 17.9587 103.962 17.7062 103.963C17.5155 103.951 17.3253 103.991 17.1557 104.079C16.9784 104.138 16.8184 104.24 16.6899 104.375C16.5565 104.506 16.455 104.665 16.3935 104.841C16.3058 105.011 16.2655 105.201 16.2771 105.392V105.773C16.3453 106.012 16.4727 106.231 16.6476 106.408L16.944 106.63C17.1625 106.757 17.4111 106.823 17.6638 106.821C17.8554 106.829 18.0457 106.785 18.2143 106.694C18.3896 106.642 18.5472 106.543 18.6695 106.408C18.8077 106.282 18.91 106.121 18.9659 105.942C19.0611 105.775 19.1052 105.584 19.0929 105.392C19.1141 105.265 19.1035 105.138 19.0823 105.011Z" fill="white"/>
<path d="M23.3062 16.7784C23.263 16.6046 23.1712 16.4467 23.0415 16.3232L22.8298 16.1538C22.6716 16.0641 22.493 16.0167 22.3111 16.0162C22.1742 16.01 22.0383 16.043 21.9195 16.1114C21.7878 16.1464 21.6698 16.2202 21.5807 16.3232C21.4556 16.4502 21.3645 16.6068 21.3161 16.7784C21.2631 16.958 21.2631 17.1491 21.3161 17.3288V17.604L21.4219 17.8369C21.4804 17.9498 21.5682 18.0448 21.676 18.1122C21.7328 18.1741 21.8063 18.2182 21.8877 18.2392C22.0037 18.3042 22.1362 18.3336 22.2688 18.3239H22.5334L22.7663 18.2286C22.8792 18.1701 22.9742 18.0824 23.0415 17.9745C23.128 17.8778 23.1897 17.7616 23.2215 17.6358V17.3606C23.3091 17.1799 23.3387 16.9765 23.3062 16.7784Z" fill="white"/>
<path d="M134.309 7.28302C134.101 7.35501 133.92 7.49005 133.792 7.66934C133.665 7.84863 133.596 8.06327 133.596 8.28337C133.596 8.50348 133.665 8.71811 133.792 8.89741C133.92 9.0767 134.101 9.21174 134.309 9.28373C134.556 9.25823 134.785 9.14183 134.952 8.95706C135.119 8.77228 135.211 8.53225 135.211 8.28337C135.211 8.0345 135.119 7.79446 134.952 7.60969C134.785 7.42491 134.556 7.30852 134.309 7.28302Z" fill="white"/>
<path d="M162.54 123.768C162.491 123.583 162.392 123.415 162.255 123.282L162.032 123.112C161.866 123.013 161.675 122.962 161.482 122.964C161.334 122.953 161.187 122.986 161.058 123.059C160.924 123.1 160.803 123.177 160.709 123.282C160.603 123.377 160.523 123.497 160.476 123.631C160.413 123.763 160.381 123.908 160.381 124.054C160.381 124.16 160.381 124.255 160.381 124.351C160.43 124.536 160.529 124.704 160.667 124.838L160.889 125.007C161.055 125.106 161.246 125.157 161.439 125.155C161.587 125.166 161.734 125.133 161.863 125.06C161.998 125.02 162.118 124.943 162.212 124.838C162.318 124.739 162.398 124.615 162.445 124.478C162.51 124.346 162.543 124.201 162.54 124.054V123.768Z" fill="white"/>
<path d="M168.902 59.2802C168.855 59.1488 168.779 59.0295 168.68 58.9307C168.581 58.8319 168.462 58.7561 168.331 58.7085C168.206 58.6348 168.062 58.6015 167.918 58.6133H167.622C167.44 58.6584 167.275 58.7538 167.145 58.8885L166.976 59.1108C166.879 59.2742 166.828 59.4607 166.828 59.6507V59.9365C166.856 60.0751 166.922 60.2033 167.018 60.307C167.096 60.4226 167.202 60.5172 167.325 60.5822C167.376 60.6342 167.437 60.674 167.505 60.6987C167.61 60.7506 167.727 60.776 167.844 60.7728H168.066L168.267 60.6881L168.373 60.5928L168.595 60.4234C168.7 60.3297 168.777 60.2088 168.818 60.0741C168.88 59.9455 168.913 59.8043 168.913 59.6613C168.913 59.5182 168.88 59.377 168.818 59.2484L168.902 59.2802Z" fill="white"/>
<path d="M25.5293 131.75C25.2485 131.75 24.9793 131.862 24.7808 132.06C24.5822 132.259 24.4707 132.528 24.4707 132.809C24.4707 133.089 24.5822 133.359 24.7808 133.557C24.9793 133.756 25.2485 133.867 25.5293 133.867C25.81 133.867 26.0793 133.756 26.2778 133.557C26.4763 133.359 26.5879 133.089 26.5879 132.809C26.5879 132.528 26.4763 132.259 26.2778 132.06C26.0793 131.862 25.81 131.75 25.5293 131.75Z" fill="white"/>
<path d="M34.9506 92.3924C32.8211 84.6151 32.4188 76.4661 33.772 68.5168C35.1252 60.5676 38.2011 53.0107 42.784 46.3761C58.4721 23.9026 82.343 17.1277 103.017 19.6259C123.691 22.1242 150.06 44.947 151.478 75.6351C152.897 106.323 133.303 128.786 105.155 135.201C77.0078 141.616 45.9915 128.786 34.9506 92.3924Z" fill="#3D3436"/>
<path d="M130.074 37.9922C130.074 37.9922 137.802 39.1355 151.553 31.6937C165.304 24.2519 179.637 9.92939 184.792 5.05995C189.947 0.190508 198.553 -0.381123 203.116 7.34647C207.678 15.0741 200.184 25.5116 194.234 27.9675C186.634 31.1432 163.409 45.2328 159.937 47.784C154.647 51.8327 150.311 56.9929 147.234 62.9005L130.074 37.9922Z" fill="#3D3436"/>
<path d="M188.475 15.3281C188.316 14.7353 188.287 14.1148 188.392 13.5098C188.496 12.9048 188.73 12.3296 189.079 11.8242C189.577 11.0909 190.27 10.5111 191.08 10.1502C191.89 9.78925 192.784 9.66146 193.662 9.78119C194.655 9.98848 195.553 10.5142 196.22 11.2784C196.887 12.0427 197.286 13.0037 197.357 14.0155C197.426 15.0742 197.105 16.1215 196.453 16.9587C195.801 17.7958 194.865 18.3645 193.821 18.5568C193.258 18.696 192.673 18.723 192.1 18.636C191.526 18.5491 190.976 18.3501 190.479 18.0502C189.983 17.7504 189.55 17.3556 189.206 16.8886C188.863 16.4215 188.614 15.8912 188.475 15.3281Z" fill="white"/>
<path d="M95.6492 55.5751C95.3271 53.2914 95.4927 50.9653 96.135 48.7502C96.7772 46.5351 97.8816 44.4813 99.3753 42.724C100.896 40.9915 102.808 39.6475 104.953 38.8041C107.099 37.9607 109.415 37.6424 111.708 37.8758C113.996 38.1637 116.166 39.0546 117.996 40.457C119.826 41.8595 121.251 43.7233 122.124 45.8574C122.982 48.1016 121.362 50.5363 119.171 51.5208C118.342 51.8237 117.532 52.1773 116.747 52.5793C116.347 52.7892 116.003 53.0903 115.742 53.4581C115.481 53.826 115.31 54.2503 115.243 54.6965C115.236 55.2991 115.374 55.8945 115.646 56.4326C116.302 58.0416 117.022 59.6083 117.763 61.1962C117.994 61.5974 118.145 62.0396 118.207 62.4982C118.174 62.9622 118.033 63.4119 117.794 63.811C117.554 64.2101 117.225 64.5473 116.831 64.7953C115.113 66.1338 113.016 66.8968 110.84 66.976C110.478 67.008 110.115 66.9498 109.781 66.8066C108.977 66.4043 108.871 65.314 108.892 64.4142C109.048 62.8248 108.981 61.2212 108.691 59.6506C108.541 58.863 108.189 58.1279 107.669 57.5174C107.15 56.9068 106.48 56.4418 105.727 56.1679C104.433 55.9587 103.106 56.1663 101.937 56.7607C100.779 57.3571 99.5025 57.6897 98.2003 57.7346C97.587 57.7397 96.9922 57.5245 96.524 57.1282C96.0559 56.732 95.7455 56.1809 95.6492 55.5751Z" fill="white"/>
<path d="M83.1261 55.7868C81.1572 53.9026 77.8333 53.3521 76.7747 50.8221C76.2031 49.4671 76.51 47.9005 76.2348 46.4502C75.8736 45.0082 75.0343 43.7311 73.8538 42.8275C72.6734 41.9239 71.2215 41.4471 69.7352 41.4749C68.2439 41.5655 66.7978 42.0212 65.5242 42.8021C64.2505 43.5829 63.1882 44.6648 62.431 45.9527C61.3724 47.6041 60.7267 49.6153 59.0965 50.6845C57.8474 51.5102 56.2595 51.616 54.8622 52.23C53.5654 52.8886 52.5128 53.9441 51.8578 55.2427C51.2028 56.5413 50.9796 58.0152 51.2207 59.4495C51.4194 60.5231 51.8332 61.5454 52.4372 62.455C53.0411 63.3646 53.8228 64.1426 54.7352 64.7424C56.4924 65.928 58.1649 66.1079 58.9695 68.3839C59.2418 69.6888 59.6572 70.9597 60.208 72.1736C60.8889 73.1127 61.8423 73.8196 62.9388 74.1984C64.0353 74.5771 65.2217 74.6094 66.3371 74.2907C68.5618 73.6095 70.5001 72.2144 71.8523 70.3211C72.6127 69.117 73.5637 68.0444 74.6681 67.1453C76.7323 65.7798 79.527 66.0868 81.7288 65.0282C82.547 64.6138 83.254 64.0094 83.7904 63.2655C84.3269 62.5216 84.6772 61.66 84.812 60.7528C84.9467 59.8456 84.8621 58.9193 84.5651 58.0516C84.2681 57.1839 83.7674 56.4 83.105 55.7657L83.1261 55.7868ZM58.546 63.7156C56.757 64.2554 56.4289 62.53 54.9257 62.0218C54.4917 61.8736 53.9412 61.8948 53.6872 61.5137C53.4331 61.1326 53.6131 60.741 53.4755 60.381C53.3378 60.0211 53.0944 59.8835 52.9568 59.5977C52.5439 58.7932 53.3484 57.9357 53.6448 57.0783C53.7719 56.7184 53.793 56.3267 53.8989 55.9456C54.2116 55.0357 54.8588 54.2788 55.709 53.8285C56.5579 53.3653 57.4611 53.0097 58.3978 52.7699C59.0934 52.5096 59.8436 52.4295 60.5785 52.537C61.0548 52.6911 61.5127 52.897 61.9441 53.151C63.6801 53.9767 65.9878 54.0931 66.9511 55.7551C66.5968 55.9404 66.3093 56.2319 66.129 56.5888C65.9486 56.9457 65.8845 57.35 65.9455 57.7452C66.0301 58.2427 66.2525 58.899 65.8079 59.1425C65.6067 59.259 65.3527 59.206 65.1304 59.2907C64.9081 59.3754 64.6646 59.8306 64.474 60.1482C64.2272 60.481 63.9135 60.7587 63.5531 60.9633C62.0177 62.1053 60.333 63.0313 58.546 63.7156ZM71.0372 68.8073C70.8936 69.0652 70.727 69.3096 70.5397 69.5377C69.6287 70.8609 68.417 71.9492 67.004 72.7134C66.5727 72.9225 66.1124 73.0652 65.6385 73.1369C64.8925 73.1855 64.147 73.0358 63.4777 72.703C62.8083 72.3702 62.239 71.8661 61.8276 71.242C61.0186 69.9785 60.5922 68.508 60.5997 67.0077C60.558 66.5451 60.6011 66.0788 60.7267 65.6316C60.9571 65.0952 61.2958 64.6123 61.7218 64.2131C62.7803 63.0487 64.0506 62.4559 65.1409 61.2808C65.6056 60.7316 66.1041 60.2118 66.6335 59.7247C66.5966 59.8905 66.6162 60.0639 66.6891 60.2173C66.7619 60.3707 66.884 60.4954 67.0358 60.5716C67.1898 60.6412 67.3631 60.6561 67.5267 60.6138C67.6904 60.5714 67.8347 60.4743 67.9356 60.3387C67.961 60.5232 68.0481 60.6936 68.1826 60.8223C68.3171 60.9511 68.4912 61.0306 68.6766 61.0479C68.8682 61.0628 69.0609 61.0386 69.2428 60.9767C69.4248 60.9148 69.5923 60.8166 69.7352 60.688C69.8622 60.5822 69.9998 60.4551 70.1692 60.4763C70.3386 60.4975 70.5185 60.7939 70.5608 61.0268L71.2278 64.4354C71.4712 65.8962 71.7465 67.4841 71.0372 68.8073ZM71.323 55.0458C71.105 55.1614 70.8534 55.1971 70.6118 55.1469C70.3702 55.0966 70.1537 54.9635 69.9998 54.7706C69.9297 54.5709 69.8258 54.3847 69.6928 54.2201C69.0683 53.7226 68.3802 54.5801 67.7768 54.453C67.1734 54.326 66.6441 53.3309 66.0619 52.971C65.3054 52.5957 64.5949 52.1339 63.9448 51.5949C63.6242 51.317 63.4062 50.9396 63.3256 50.5231C63.245 50.1067 63.3064 49.6752 63.5002 49.2978C63.733 48.9696 64.1035 48.7579 64.2623 48.398C64.4211 48.0381 64.2623 47.2653 64.5376 46.8207C64.8128 46.3761 65.2786 46.3867 65.6491 46.1538C66.263 45.7621 66.4748 44.9259 67.0887 44.5448C67.7027 44.1637 68.8565 44.4601 69.7352 44.2907C70.6138 44.1213 71.5242 43.465 72.3075 43.899C72.7415 44.1319 72.9532 44.64 73.3661 44.9576C73.7789 45.2752 74.0647 45.3387 74.2764 45.6563C74.6681 46.2597 74.1812 47.0748 74.3505 47.7734C74.5199 48.4721 75.0174 48.7473 74.9751 49.3084C74.95 49.5211 74.8816 49.7265 74.774 49.9117C74.0576 51.3205 73.2514 52.6819 72.3604 53.9873C72.1121 54.424 71.7547 54.7888 71.323 55.0458ZM74.6469 62.6464C74.1375 62.2657 73.6628 61.8406 73.2285 61.3761C72.8519 61.0384 72.5647 60.613 72.3922 60.1376C72.305 59.8998 72.2993 59.6397 72.376 59.3983C72.4526 59.1569 72.6073 58.9478 72.8156 58.8038C72.4875 58.8038 72.4028 58.3274 72.5192 58.0204C72.6357 57.7134 72.8156 57.3535 72.6357 57.0783C72.5616 56.9724 72.4345 56.8983 72.371 56.7819C72.3075 56.6654 72.371 56.2314 72.5086 55.988C72.8275 55.2942 73.3776 54.7329 74.0647 54.4001C74.514 54.282 74.9838 54.2639 75.4409 54.3472C78.0026 54.6753 80.6596 55.5539 82.2793 57.5758C82.9037 58.2728 83.2405 59.1808 83.2214 60.1164C82.9144 63.9273 77.1452 64.3084 74.6469 62.5935V62.6464Z" fill="white"/>
<path d="M140.215 69.9294C139.411 67.9181 137.918 65.9809 135.801 65.5046C135.43 65.4012 135.042 65.379 134.662 65.4392C134.282 65.4995 133.919 65.6409 133.599 65.8539C133.29 66.0793 133.079 66.4147 133.01 66.7909C132.941 67.1671 133.019 67.5555 133.228 67.8758C133.498 68.1475 133.818 68.3634 134.171 68.5109C137.156 70.1305 138.183 73.9837 137.96 77.3712C137.844 79.1708 137.251 81.2138 135.578 81.8595C134.425 82.3042 133.144 81.9337 131.926 82.0924C131.553 82.0964 131.187 82.1958 130.863 82.381C130.538 82.5663 130.267 82.8313 130.074 83.151C129.23 82.8961 128.337 82.8453 127.47 83.0028C125.204 83.4368 123.574 85.3423 122.071 87.0889C118.678 91.2425 114.764 94.9426 110.427 98.0981C103.133 103.137 94.3682 105.709 85.5714 106.821C76.7747 107.932 67.8721 107.615 59.0118 107.35C58.1142 107.229 57.2009 107.388 56.3971 107.805C52.1628 110.526 65.5114 116.814 67.2687 117.512C77.3347 121.624 88.3091 123.001 99.0788 121.503C104.878 120.466 110.554 118.831 116.016 116.623C119.012 115.584 121.886 114.224 124.59 112.569C128.46 109.866 131.708 106.369 134.118 102.311C135.799 99.9387 136.888 97.1983 137.293 94.319C137.384 93.1643 137.287 92.0025 137.008 90.8786C137.713 90.9428 138.418 90.7561 138.999 90.3514C139.58 89.9467 139.999 89.3499 140.183 88.6662C140.395 87.2265 139.284 85.9351 139.125 84.506C138.966 83.0769 139.76 81.4573 140.342 79.9965C141.596 76.7494 141.551 73.1438 140.215 69.9294ZM109.675 115.247C107.939 118.084 103.324 118.169 100.37 118.529C98.3167 118.772 96.3371 119.502 94.2941 119.714C93.1088 119.76 91.9223 119.668 90.7585 119.439C89.4246 119.259 88.0803 119.238 86.7465 119.143C82.3406 118.803 77.9711 118.095 73.6836 117.025C71.6513 116.487 69.708 115.656 67.9144 114.559C65.702 113.289 63.4684 112.018 61.2983 110.674C61.1819 110.589 61.2983 110.367 61.4042 110.43C65.5009 112.018 69.4176 114.326 73.7048 115.385C77.8239 116.453 82.0282 117.162 86.2701 117.502C87.3287 117.586 88.4719 117.618 89.5728 117.692C90.8325 117.788 92.0711 118.105 93.3308 118.126C95.395 118.126 97.4169 117.301 99.4599 117.068C102.858 116.613 106.245 116.274 109.442 114.951C109.612 114.876 109.76 115.099 109.675 115.247ZM133.059 95.8116C132.035 98.1243 130.737 100.306 129.195 102.311C127.445 104.661 125.419 106.794 123.161 108.663C121.942 109.677 120.639 110.587 119.266 111.383C118.081 112.208 116.73 112.761 115.307 113.003C115.283 113.001 115.26 112.993 115.241 112.979C115.222 112.965 115.207 112.945 115.199 112.923C115.19 112.901 115.187 112.877 115.191 112.854C115.196 112.83 115.206 112.809 115.222 112.791C116.32 111.916 117.488 111.134 118.715 110.452C119.99 109.569 121.22 108.622 122.399 107.615C124.473 105.874 126.338 103.899 127.957 101.729C129.355 99.9 130.555 97.9269 131.535 95.8433C132.04 94.7787 132.396 93.6495 132.593 92.4876C132.742 91.5667 132.763 90.6986 132.974 89.7883C132.982 89.7592 132.997 89.7327 133.019 89.7115C133.04 89.6903 133.067 89.6752 133.096 89.6676C133.125 89.6601 133.155 89.6604 133.184 89.6686C133.213 89.6768 133.239 89.6925 133.26 89.7142C134.965 91.1962 133.79 94.0861 133.059 95.8116Z" fill="white"/>
<path d="M58.0909 93.8743C59.5004 94.2388 60.9915 94.1196 62.3252 93.5356C64.6329 92.6252 66.7606 91.4184 69.3329 91.9689C70.3858 92.2521 71.4185 92.6058 72.424 93.0275C72.9911 93.2651 73.6057 93.3678 74.2192 93.3274C74.8328 93.287 75.4286 93.1046 75.9596 92.7946C78.0768 91.6725 79.7705 90.0635 82.3111 90.0846C83.7507 90.0846 85.2433 90.5504 86.6406 90.0846C87.6123 89.6595 88.4793 89.0273 89.1812 88.2321C90.547 86.7377 92.3588 85.7241 94.3471 85.3422C95.4249 85.2517 96.4783 84.9722 97.4593 84.5165C98.3137 83.871 98.9523 82.9814 99.2906 81.9654C99.6962 81.0025 100.406 80.1992 101.312 79.6789C102.353 79.3424 103.414 79.0702 104.488 78.8638C105.706 78.398 106.436 77.1065 107.526 76.429C107.767 76.2767 108.022 76.149 108.288 76.0479L107.992 75.5822C107.452 74.7671 106.934 73.9626 106.32 73.1686C105.282 74.2998 104.08 75.2671 102.752 76.0374C102.041 76.5297 101.259 76.9116 100.434 77.17C99.7034 77.3817 98.9519 77.4664 98.232 77.6993C97.4523 77.9152 96.7807 78.4132 96.3478 79.0966C96.0275 79.7014 95.6741 80.288 95.2892 80.8539C94.2306 82.1347 92.6851 82.1559 91.4042 83.0451C91.2137 83.1721 91.0125 82.8863 91.1713 82.7381C92.3146 81.6796 93.9342 81.3091 94.7705 79.8271C95.4586 78.5991 95.8291 77.4558 97.237 76.8313C97.9268 76.5526 98.634 76.3193 99.3541 76.1326C100.182 75.875 100.952 75.4578 101.619 74.9047C102.874 73.9504 104.177 73.0635 105.526 72.2477C105.039 71.6196 104.531 71.0162 104.001 70.4375C103.376 71.2707 102.609 71.9874 101.736 72.5546C100.541 73.1863 99.2664 73.6528 97.9462 73.9414C96.467 74.3371 95.0958 75.0607 93.9342 76.0585C92.1982 77.4876 90.5997 78.6732 88.292 78.8849C87.1717 78.9265 86.0599 79.097 84.9787 79.393C83.9278 79.8366 82.98 80.4925 82.1946 81.3196C80.714 82.8465 78.7651 83.834 76.6583 84.1249C75.5044 84.2201 74.34 84.1249 73.1967 84.3154C72.0279 84.5756 70.9017 84.9996 69.8516 85.5751C67.9938 86.4383 65.9053 86.6724 63.9025 86.242C62.4787 85.9756 61.0083 86.1264 59.6682 86.676C58.6582 87.1755 57.592 87.5522 56.4924 87.7981C54.4811 88.0734 52.5016 86.7395 50.5962 86.2526C49.5915 86.0628 48.658 85.6015 47.8968 84.9188C47.6405 86.2369 47.5905 87.5868 47.7486 88.9202C48.3392 89.0212 48.9392 89.0567 49.5376 89.0261C50.9276 88.8799 52.3327 89.0021 53.6766 89.386C54.5799 89.7922 55.592 89.8889 56.5559 89.6612C57.4875 89.4177 58.3449 88.9837 59.2765 88.772C60.0569 88.5854 60.8666 88.5566 61.6583 88.6873C62.7266 89.0507 63.8436 89.2506 64.9716 89.2801C66.0212 89.0184 67.0269 88.6047 67.9568 88.0522C68.7257 87.7199 69.5539 87.547 70.3915 87.5441C72.297 87.5441 74.4459 88.6026 76.2243 87.6711C78.0027 86.7395 79.1989 85.4375 81.0514 84.94C82.794 84.51 84.6319 84.7009 86.249 85.4798C86.2608 85.4916 86.2702 85.5057 86.2766 85.5211C86.283 85.5365 86.2863 85.5531 86.2863 85.5698C86.2863 85.5865 86.283 85.6031 86.2766 85.6185C86.2702 85.634 86.2608 85.648 86.249 85.6598C85.9655 85.9247 85.6326 86.1312 85.2694 86.2674C84.9061 86.4036 84.5196 86.4669 84.1318 86.4537C82.8803 86.3402 81.6192 86.5028 80.4374 86.9301C78.7331 87.7029 77.3464 89.3331 75.4515 89.6295C73.2179 89.9788 71.0902 88.645 68.846 89.3119C66.9088 89.8941 65.5644 90.9738 63.4473 90.4869C62.4105 90.0899 61.317 89.8612 60.208 89.8094C59.0621 90.045 57.9365 90.3706 56.8418 90.7833C54.9363 91.2597 53.666 90.254 51.8982 89.9047C50.5221 89.64 49.0295 89.7671 47.7592 89.4918L47.8545 90.688C47.9286 91.6407 47.9815 92.964 48.1615 94.3295C50.1939 94.4248 52.3958 92.8263 54.5129 92.9851C55.7284 93.1806 56.9253 93.4781 58.0909 93.8743ZM57.2334 86.2844C58.3574 85.7621 59.5095 85.3027 60.6844 84.9082C62.8651 84.3366 64.9187 85.3528 67.1311 84.9717C69.3435 84.5906 70.8573 83.1827 72.9427 82.8546C75.0281 82.5264 77.177 82.8546 79.0295 81.796C80.882 80.7374 82.0676 78.8743 84.0365 78.0592C86.0055 77.2441 87.8368 77.6464 89.647 77.0007C91.7641 76.2702 93.1826 74.2907 95.1833 73.2956C97.184 72.3006 99.9363 72.3006 101.778 70.7233C102.233 70.3278 102.648 69.8881 103.017 69.4107C102.47 68.8971 101.89 68.4198 101.281 67.9816C100.578 67.4098 99.7175 67.0663 98.8142 66.9971C97.0994 66.9971 95.8926 68.6062 94.5799 69.7283C93.1794 70.9085 91.4418 71.6161 89.6152 71.7501C88.9794 71.7413 88.3455 71.8196 87.731 71.983C86.3866 72.4911 85.7832 74.0367 84.7352 75.0211C82.1735 77.4241 77.6639 76.0797 74.8269 78.1016C73.2603 79.2448 72.4134 81.2773 70.5926 82.0712C68.2744 83.0663 65.6385 81.3514 63.1297 81.6372C61.0655 81.8701 59.1812 83.4685 57.1276 83.1192C55.4233 82.8334 54.1318 81.2561 52.4169 81.0021C50.5221 80.7586 48.8284 82.3041 48.1826 84.1143C49.7387 85.1729 51.8135 85.1729 53.5919 85.8927C54.1403 86.2075 54.7481 86.4048 55.3768 86.4723C56.0055 86.5397 56.6414 86.4757 57.244 86.2844H57.2334ZM109.961 79.6789C109.76 78.7432 109.402 77.8484 108.902 77.0324C108.584 77.219 108.285 77.439 108.013 77.6887C107.018 78.6309 106.648 79.8059 105.303 80.3775C103.959 80.9491 102.233 80.7057 101.249 82.0818C100.508 83.1404 100.19 84.3578 99.2483 85.2575C97.6181 86.8136 95.4268 86.6125 93.4155 87.2582C91.2137 87.9675 90.081 90.2011 88.1226 91.302C85.5609 92.7311 82.6922 91.0903 80.1622 92.3606C78.1509 93.3451 76.4254 95.1764 74.0436 95.2293C71.3654 95.2293 69.3541 93.1122 66.5701 93.8214C63.9871 94.446 61.8171 96.1503 59.033 95.8009C57.8994 95.5598 56.7929 95.2052 55.7303 94.7424C54.449 94.3139 53.0631 94.3139 51.7818 94.7424C50.7036 95.1566 49.5443 95.316 48.3943 95.2081C48.8813 97.8969 49.9822 100.438 52.8086 100.31C54.5341 100.236 56.1643 99.3683 57.9003 99.3472C58.9589 99.3472 60.0175 99.6753 61.1713 99.6859C63.2885 99.6859 65.2363 98.6273 67.237 97.8546C67.6137 97.6798 68.0359 97.628 68.4437 97.7064C68.8882 97.9108 69.2795 98.2151 69.587 98.5956C71.1008 99.9823 73.5037 99.6542 75.3774 98.8285C77.2511 98.0028 79.0507 96.8172 81.0937 96.7113C83.1368 96.6055 85.328 97.6534 87.3287 97.1242C89.9646 96.4361 91.4466 93.3239 94.1142 92.7205C95.2998 92.4558 96.5701 92.7205 97.7451 92.4347C101.249 91.5561 101.979 86.4326 105.261 84.9611C106.32 84.4742 107.611 84.4424 108.585 83.7649C109.174 83.2815 109.616 82.6419 109.859 81.9194C110.103 81.1969 110.138 80.4205 109.961 79.6789Z" fill="white"/>
<path d="M120.949 77.4771C120.906 77.3202 120.822 77.1776 120.706 77.0642L120.515 76.916C120.375 76.831 120.213 76.787 120.049 76.789C119.924 76.7844 119.799 76.8136 119.689 76.8737C119.574 76.9063 119.471 76.9726 119.393 77.0642C119.218 77.2379 119.119 77.474 119.118 77.7205V77.9746C119.161 78.1283 119.245 78.2674 119.361 78.3768L119.541 78.525C119.686 78.6089 119.85 78.6528 120.017 78.6521C120.264 78.6508 120.5 78.5518 120.674 78.3768C120.765 78.2992 120.832 78.196 120.864 78.0804C120.924 77.9703 120.954 77.8459 120.949 77.7205V77.4771Z" fill="white"/>
<path d="M126.676 69.6436C126.655 69.5648 126.615 69.4923 126.56 69.4319L126.454 69.3578C126.38 69.3156 126.296 69.2937 126.211 69.2942C126.152 69.2732 126.089 69.2732 126.031 69.2942C125.969 69.3089 125.914 69.3422 125.872 69.3895C125.822 69.4308 125.785 69.486 125.766 69.5483C125.755 69.6078 125.755 69.6688 125.766 69.7283V69.8659C125.79 69.946 125.834 70.0188 125.893 70.0776L125.988 70.1517C126.063 70.1938 126.146 70.2157 126.232 70.2152C126.294 70.2309 126.36 70.2309 126.422 70.2152C126.481 70.1939 126.535 70.1615 126.581 70.1199C126.625 70.0751 126.657 70.0208 126.676 69.9611C126.694 69.8988 126.694 69.833 126.676 69.7706V69.6436Z" fill="white"/>
<path d="M122.897 35.314C122.854 35.1688 122.774 35.0375 122.664 34.9329L122.495 34.7953C122.361 34.7232 122.212 34.6868 122.061 34.6894C121.947 34.6787 121.833 34.7008 121.732 34.753C121.629 34.7925 121.535 34.8539 121.457 34.9329C121.375 35.0065 121.317 35.102 121.288 35.2081C121.233 35.3083 121.207 35.4221 121.214 35.5363V35.7586C121.246 35.9035 121.319 36.036 121.425 36.1397L121.605 36.2667C121.732 36.3468 121.879 36.3874 122.029 36.3832C122.251 36.3711 122.464 36.2855 122.632 36.1397C122.711 36.0619 122.773 35.9681 122.812 35.8645C122.863 35.7626 122.888 35.6501 122.886 35.5363L122.897 35.314Z" fill="white"/>
<path d="M97.396 28.2215C97.3742 28.1417 97.3458 28.0638 97.3113 27.9887C97.3113 27.9887 97.3113 27.9251 97.3113 27.904C97.2947 27.8493 97.2735 27.7962 97.2478 27.7452C97.1779 27.6069 97.0848 27.4815 96.9726 27.3747C96.8122 27.2048 96.6121 27.0775 96.3903 27.0042L96.168 26.9089L95.6917 26.8454L95.2047 26.9089L94.9824 26.9936L94.7601 27.0889C94.4857 27.2521 94.2565 27.4814 94.0932 27.7558C94.0932 27.7558 93.9133 28.1686 93.9027 28.1898C93.9027 28.1898 93.8392 28.6661 93.8392 28.6767C93.8366 29.0014 93.9246 29.3203 94.0932 29.5977C94.25 29.8707 94.4765 30.0972 94.7495 30.254L95.1836 30.4446C95.5026 30.5294 95.8384 30.5294 96.1574 30.4446C96.3875 30.3914 96.5994 30.2782 96.7714 30.1164C96.9422 30.0073 97.0839 29.8584 97.1843 29.6824C97.3257 29.5212 97.4273 29.329 97.4807 29.1213C97.529 28.8191 97.4998 28.5095 97.396 28.2215Z" fill="white"/>
<path d="M91.0763 61.1538L91.0022 61.0374L90.9281 60.9315V60.868L90.8434 60.8045L90.7693 60.7198C90.7413 60.6891 90.7043 60.6678 90.6636 60.6589C90.6229 60.65 90.5805 60.6539 90.5422 60.6702C90.5038 60.6865 90.4715 60.7142 90.4496 60.7497C90.4277 60.7851 90.4174 60.8265 90.42 60.868V60.9421C90.4122 60.9841 90.4122 61.0272 90.42 61.0692C90.42 61.0692 90.42 61.0692 90.42 61.1433V61.2703C90.4149 61.316 90.4149 61.3622 90.42 61.4079C90.42 61.4079 90.42 61.4079 90.42 61.4714C90.4105 61.5132 90.4105 61.5566 90.42 61.5984C90.4412 61.6595 90.4777 61.7141 90.5258 61.7572L90.4623 61.6725C90.5015 61.7349 90.5562 61.786 90.6211 61.8207C90.673 61.8357 90.728 61.8357 90.7799 61.8207C90.8352 61.8366 90.8939 61.8366 90.9493 61.8207C91.0249 61.7991 91.094 61.7591 91.1504 61.7043V61.6514C91.2018 61.5729 91.2277 61.4805 91.2245 61.3867C91.2025 61.2947 91.1503 61.2127 91.0763 61.1538Z" fill="white"/>
<path d="M46.3196 62.5723C46.3226 62.5512 46.3226 62.5298 46.3196 62.5088C46.2934 62.4389 46.2497 62.3769 46.1925 62.3288C46.1971 62.3043 46.1971 62.2792 46.1925 62.2547C46.2024 62.2313 46.2075 62.2061 46.2075 62.1806C46.2075 62.1552 46.2024 62.13 46.1925 62.1065C46.1957 62.0744 46.1865 62.0424 46.1668 62.0168C46.1471 61.9913 46.1185 61.9741 46.0867 61.9689C46.0632 61.959 46.038 61.9539 46.0126 61.9539C45.9871 61.9539 45.9619 61.959 45.9385 61.9689H45.8644L45.7162 62.0854C45.6658 62.1273 45.6229 62.1774 45.5892 62.2336C45.5223 62.2813 45.4708 62.3476 45.441 62.4241C45.441 62.4241 45.441 62.4241 45.441 62.477C45.4201 62.5497 45.4201 62.6267 45.441 62.6993C45.4323 62.7377 45.4323 62.7774 45.441 62.8158L45.5151 62.911L45.6527 63.0169C45.7377 63.0676 45.8308 63.1034 45.9279 63.1228C45.9958 63.1415 46.0681 63.1371 46.1332 63.1103C46.1984 63.0834 46.2528 63.0357 46.2878 62.9746C46.3355 62.9198 46.3644 62.8511 46.3701 62.7787C46.3758 62.7062 46.3581 62.6339 46.3196 62.5723Z" fill="white"/>
<path d="M73.292 35.0706C73.2531 35.0116 73.2107 34.9551 73.165 34.9012C73.1319 34.8611 73.0877 34.8316 73.038 34.8165C72.9855 34.8065 72.9317 34.8065 72.8792 34.8165H72.7628C72.6974 34.8351 72.6387 34.8718 72.5934 34.9224C72.5138 34.9756 72.4455 35.0439 72.3923 35.1235C72.3618 35.1798 72.3404 35.2405 72.3287 35.3034C72.3104 35.3727 72.2856 35.44 72.2546 35.5046V35.367C72.2146 35.4304 72.1927 35.5036 72.1911 35.5787C72.1645 35.654 72.1645 35.7362 72.1911 35.8116C72.2008 35.8839 72.2343 35.951 72.2864 36.0021C72.3255 36.0645 72.3803 36.1156 72.4452 36.1503C72.5114 36.1898 72.5853 36.2149 72.6619 36.224C72.7384 36.2331 72.8161 36.2261 72.8898 36.2032L73.0274 36.1503C73.1093 36.0999 73.1782 36.031 73.2285 35.9492C73.2854 35.8227 73.3314 35.6917 73.3661 35.5575C73.3874 35.4756 73.3919 35.3901 73.3791 35.3064C73.3664 35.2227 73.3368 35.1425 73.292 35.0706Z" fill="white"/>
<path d="M64.8551 38.4157C64.8611 38.3842 64.8611 38.3519 64.8551 38.3204C64.8601 38.2888 64.8601 38.2567 64.8551 38.2251V38.1298C64.8324 38.0873 64.7997 38.051 64.7598 38.024H64.6751C64.6263 38.013 64.5757 38.013 64.5269 38.024H64.4105H64.347H64.2941C64.2458 38.047 64.2026 38.0794 64.167 38.1193C64.1329 38.1534 64.1044 38.1927 64.0823 38.2357C64.0411 38.3025 64.0193 38.3795 64.0193 38.458C64.0193 38.5365 64.0411 38.6135 64.0823 38.6803C64.118 38.7508 64.1731 38.8096 64.2411 38.8497C64.2971 38.8603 64.3545 38.8603 64.4105 38.8497C64.4658 38.8656 64.5245 38.8656 64.5799 38.8497C64.6565 38.8304 64.7261 38.79 64.781 38.7332C64.8246 38.6891 64.8577 38.6358 64.8779 38.5771C64.898 38.5185 64.9047 38.4561 64.8974 38.3945L64.8551 38.4157Z" fill="white"/>
<path d="M44.3296 87.2794C44.2972 87.1663 44.2351 87.0639 44.1496 86.983L44.0226 86.8772C43.9177 86.8231 43.8018 86.7941 43.6838 86.7925C43.5957 86.7824 43.5066 86.8009 43.4298 86.8454C43.3465 86.8745 43.2706 86.9215 43.2075 86.983C43.1485 87.0442 43.1018 87.1161 43.0699 87.1948C43.031 87.2773 43.0128 87.3682 43.0169 87.4594V87.6288C43.0499 87.7392 43.1079 87.8407 43.1863 87.9252L43.3239 88.031C43.4269 88.0898 43.5441 88.1191 43.6627 88.1157C43.8362 88.1123 44.0022 88.0443 44.1284 87.9252C44.1964 87.8717 44.2448 87.7973 44.2661 87.7135C44.307 87.635 44.3287 87.5479 44.3296 87.4594V87.2794Z" fill="white"/>
<path d="M75.9807 125.293C75.9325 125.113 75.8375 124.948 75.7054 124.817L75.4937 124.647C75.3293 124.554 75.1429 124.506 74.9538 124.51C74.8145 124.509 74.6764 124.535 74.5474 124.588C74.4185 124.641 74.3012 124.718 74.2023 124.817C74.0123 125.022 73.9032 125.289 73.8953 125.568V125.854C73.9488 126.032 74.043 126.195 74.1705 126.33L74.3822 126.489C74.5456 126.586 74.7321 126.637 74.9221 126.637C75.0662 126.649 75.2105 126.616 75.3349 126.542C75.4626 126.498 75.5785 126.426 75.6737 126.33C75.7762 126.235 75.8527 126.114 75.896 125.981C75.9645 125.854 75.9975 125.712 75.9912 125.568L75.9807 125.293Z" fill="white"/>
<path d="M103.271 127.029C103.231 126.905 103.162 126.793 103.07 126.701L102.911 126.574C102.794 126.51 102.663 126.477 102.53 126.478C102.427 126.468 102.323 126.49 102.234 126.542C102.141 126.574 102.057 126.629 101.99 126.701C101.916 126.766 101.861 126.85 101.831 126.944C101.788 127.037 101.766 127.138 101.768 127.241V127.442C101.799 127.57 101.865 127.687 101.958 127.78L102.117 127.897C102.233 127.964 102.364 128 102.498 128.003C102.602 128.005 102.704 127.979 102.795 127.929C102.89 127.907 102.975 127.855 103.038 127.78C103.11 127.709 103.165 127.622 103.197 127.526C103.245 127.439 103.267 127.34 103.26 127.241L103.271 127.029Z" fill="white"/>
<path d="M107.241 92.6253C107.208 92.5121 107.146 92.4097 107.061 92.3289L106.923 92.223C106.822 92.1594 106.704 92.1264 106.584 92.1277C106.492 92.1273 106.401 92.1491 106.32 92.1912C106.239 92.219 106.166 92.2662 106.108 92.3289C106.043 92.389 105.995 92.4659 105.97 92.5512C105.927 92.6288 105.905 92.7164 105.907 92.8052V92.9852C105.939 93.1013 106.001 93.2071 106.087 93.2922L106.224 93.398C106.329 93.4521 106.445 93.4811 106.563 93.4827C106.649 93.5089 106.741 93.5089 106.828 93.4827C106.909 93.4562 106.982 93.4088 107.039 93.3451C107.107 93.2852 107.159 93.2086 107.188 93.1228C107.214 93.0365 107.214 92.9444 107.188 92.8581L107.241 92.6253Z" fill="white"/>
<path d="M94.1459 99.8342C94.1137 99.7117 94.0519 99.599 93.9659 99.506L93.8177 99.3896C93.7047 99.3259 93.5769 99.2931 93.4472 99.2943C93.3518 99.2938 93.2576 99.3155 93.172 99.3578C93.0836 99.3878 93.0037 99.4386 92.9391 99.506C92.8673 99.5669 92.8156 99.6481 92.7909 99.7389C92.7381 99.8243 92.7157 99.925 92.7274 100.025V100.215C92.7567 100.338 92.8233 100.449 92.9179 100.533L93.0661 100.649C93.1755 100.712 93.2997 100.745 93.4261 100.745C93.5258 100.756 93.6265 100.734 93.7119 100.681C93.8027 100.656 93.8839 100.605 93.9448 100.533C94.0121 100.468 94.0629 100.388 94.093 100.3C94.1352 100.214 94.157 100.12 94.1565 100.025L94.1459 99.8342Z" fill="white"/>
<path d="M144.545 80.4517C144.377 80.4517 144.215 80.5186 144.096 80.6377C143.977 80.7568 143.91 80.9184 143.91 81.0868C143.91 81.2553 143.977 81.4168 144.096 81.5359C144.215 81.655 144.377 81.7219 144.545 81.7219C144.713 81.7219 144.875 81.655 144.994 81.5359C145.113 81.4168 145.18 81.2553 145.18 81.0868C145.18 80.9184 145.113 80.7568 144.994 80.6377C144.875 80.5186 144.713 80.4517 144.545 80.4517Z" fill="white"/>
<path d="M133.662 52.4629C133.37 51.2235 132.933 50.0226 132.36 48.8849C130.648 49.7462 129.189 51.0375 128.126 52.6323C127.598 53.433 127.297 54.3622 127.256 55.3206C127.215 56.279 127.435 57.2305 127.893 58.0734C128.153 58.529 128.229 59.0668 128.105 59.5765C127.937 60.0866 127.841 60.6174 127.819 61.1538C127.819 61.6937 128.306 62.2124 128.878 62.1595C129.059 60.9905 129.416 59.8556 129.936 58.7932C130.678 58.6463 131.374 58.3261 131.968 57.8588C132.562 57.3915 133.038 56.7904 133.355 56.1044C133.824 54.9497 133.931 53.6798 133.662 52.4629ZM130.783 53.4156C130.522 54.0211 130.293 54.6394 130.095 55.2682C129.82 56.3267 130.01 57.4912 129.47 58.4439C129.444 58.4794 129.406 58.5051 129.363 58.5168C129.32 58.5286 129.274 58.5258 129.233 58.5088C129.192 58.4919 129.158 58.4618 129.135 58.4232C129.113 58.3846 129.104 58.3398 129.11 58.2957C129.417 57.2371 129.28 56.1044 129.566 55.0353C130 53.7743 130.582 52.5695 131.302 51.4467C131.365 51.3091 131.598 51.4467 131.545 51.542C131.302 52.1665 131.027 52.7911 130.783 53.4156Z" fill="white"/>
<path d="M88.2391 44.7671C87.8368 44.2908 87.3816 43.5921 86.9794 43.1263C87.4537 42.5417 87.7636 41.8411 87.8771 41.0969C87.9906 40.3526 87.9036 39.5915 87.6251 38.892C87.3188 38.1749 86.8429 37.5428 86.2384 37.0501C85.5185 36.4467 84.6293 35.9915 84.2377 35.1129C84.0456 34.7221 83.9135 34.3046 83.846 33.8744C82.5993 35.231 81.9276 37.0184 81.9723 38.8603C82.0065 39.7723 82.2759 40.66 82.7545 41.4372C83.233 42.2144 83.9044 42.8546 84.7034 43.2957C85.6562 43.7826 86.4607 44.8518 87.4134 45.3388C87.5955 45.4477 87.8047 45.5027 88.0168 45.4975C88.1227 45.4977 88.2246 45.4571 88.3015 45.3842C88.3783 45.3113 88.4242 45.2116 88.4296 45.1059C88.3994 44.9772 88.3334 44.8597 88.2391 44.7671ZM85.6667 42.4383C85.1375 42.4383 84.7564 41.8137 84.5023 41.3797C84.1684 40.8494 83.8916 40.2852 83.6766 39.6965C83.2387 38.5467 83.0685 37.3122 83.1791 36.0868C83.1791 35.8751 83.5284 35.8645 83.5178 36.0868C83.5456 37.2275 83.7676 38.3552 84.1741 39.4213C84.3734 39.9804 84.6325 40.5164 84.9469 41.0198C85.2864 41.3936 85.5586 41.8233 85.7514 42.2901C85.7613 42.3048 85.7669 42.322 85.7675 42.3397C85.7682 42.3575 85.7638 42.375 85.755 42.3904C85.7462 42.4058 85.7333 42.4185 85.7177 42.4269C85.7021 42.4354 85.6845 42.4393 85.6667 42.4383Z" fill="white"/>
<path d="M53.5394 69.1461C53.1826 68.9679 52.7815 68.8979 52.3855 68.9449C51.8357 69.0426 51.2808 69.1098 50.7236 69.1461C49.2404 68.9007 47.7188 69.0466 46.3093 69.5695C45.2402 70.1337 44.3824 71.0286 43.864 72.1207C43.3474 73.2031 42.9909 74.3549 42.8054 75.5399C43.7264 75.2117 44.6473 74.8412 45.5683 74.4813C46.3093 74.2166 47.0397 73.952 47.7701 73.6662C48.5376 73.3884 49.2532 72.9841 49.8873 72.47C50.222 72.1665 50.4934 71.7998 50.686 71.3911C50.8785 70.9823 50.9884 70.5395 51.0094 70.0882H53.9205C53.9608 69.911 53.9459 69.7258 53.8778 69.5573C53.8096 69.3889 53.6915 69.2454 53.5394 69.1461ZM49.0193 70.554L48.4053 70.8186C48.003 70.988 47.6008 71.1785 47.2197 71.3797C46.4174 71.8161 45.7003 72.3934 45.1025 73.084C45.0284 73.1687 44.912 73.084 44.9543 72.9675C45.1493 72.5132 45.4337 72.1028 45.7906 71.7607C46.1128 71.4452 46.4676 71.1649 46.8492 70.9245C47.2454 70.6752 47.6635 70.4626 48.0983 70.2893L48.7652 70.0141C48.9981 69.9294 49.1992 69.813 49.4215 70.0141C49.449 70.0342 49.4697 70.0622 49.481 70.0943C49.4924 70.1264 49.4937 70.1612 49.485 70.1941C49.4639 70.4058 49.2416 70.4587 49.0193 70.554Z" fill="white"/>
</g>
<defs>
<clipPath id="clip0_147_1017">
<rect width="203.596" height="150" fill="white" transform="translate(0.927979)"/>
</clipPath>
</defs>
</svg>
